# xmcd
#
# Track frame offsets: 
#        150
#        20535
#        37835
#        52540
#        72407
#        103185
#        124592
#        145900
#        161980
#        177025
#        195905
#        223570
#        237355
#        263072
#
# Disc length: 3911 seconds
#
# Revision: 1
# Processed by: cddbd v1.5.2PL0 Copyright (c) Steve Scherf et al.
# Submitted via: ExactAudioCopy v0.99pb5
#
DISCID=ba0f450e
DTITLE=Nick Moss and The Flip Tops - Got A New Plan
DYEAR=2001
DGENRE=Blues
TTITLE0=When It Rains It Really Pours
TTITLE1=Ain't Got That Time
TTITLE2=Playing By The Rules
TTITLE3=Arrowmaker Pass
TTITLE4=Let's Try This Plan Again
TTITLE5=My Daddy Was Right
TTITLE6=Work Your Hips
TTITLE7=For You
TTITLE8=Boogie Man
TTITLE9=Poison Ivy
TTITLE10=Katie Ann
TTITLE11=My Love Strikes Like Lightning
TTITLE12=Two Fools With A Misunderstanding
TTITLE13=(Kind Of) Ghetto
EXTD=YEAR: 2001
EXTT0=
EXTT1=
EXTT2=
EXTT3=
EXTT4=
EXTT5=
EXTT6=
EXTT7=
EXTT8=
EXTT9=
EXTT10=
EXTT11=
EXTT12=
EXTT13=
PLAYORDER=
